<svg width="18" height="18" viewBox="0 0 18 18" fill="none" xmlns="http://www.w3.org/2000/svg">
<path d="M11.113 8.656L17.5567 2.47118C17.8389 2.1997 17.9974 1.8315 17.9974 1.44758C17.9974 1.06366 17.8389 0.695461 17.5567 0.423987C17.2745 0.152513 16.8918 0 16.4928 0C16.0937 0 15.711 0.152513 15.4288 0.423987L9 6.62322L2.57121 0.423987C2.28903 0.152513 1.90631 -2.86044e-09 1.50724 0C1.10817 2.86045e-09 0.725452 0.152513 0.443269 0.423987C0.161086 0.695461 0.00255743 1.06366 0.00255743 1.44758C0.00255743 1.8315 0.161086 2.1997 0.443269 2.47118L6.88704 8.656L0.443269 14.8408C0.302812 14.9748 0.191329 15.1343 0.115249 15.31C0.0391699 15.4857 0 15.6741 0 15.8644C0 16.0547 0.0391699 16.2432 0.115249 16.4188C0.191329 16.5945 0.302812 16.754 0.443269 16.888C0.582579 17.0231 0.74832 17.1304 0.930933 17.2036C1.11355 17.2768 1.30941 17.3145 1.50724 17.3145C1.70507 17.3145 1.90094 17.2768 2.08355 17.2036C2.26616 17.1304 2.4319 17.0231 2.57121 16.888L9 10.6888L15.4288 16.888C15.5681 17.0231 15.7338 17.1304 15.9165 17.2036C16.0991 17.2768 16.2949 17.3145 16.4928 17.3145C16.6906 17.3145 16.8865 17.2768 17.0691 17.2036C17.2517 17.1304 17.4174 17.0231 17.5567 16.888C17.6972 16.754 17.8087 16.5945 17.8848 16.4188C17.9608 16.2432 18 16.0547 18 15.8644C18 15.6741 17.9608 15.4857 17.8848 15.31C17.8087 15.1343 17.6972 14.9748 17.5567 14.8408L11.113 8.656Z" fill="#B40909"/>
</svg>
