<?xml version="1.0" encoding="UTF-8"?>
<svg width="700pt" height="700pt" version="1.1" viewBox="0 0 700 700" xmlns="http://www.w3.org/2000/svg" xmlns:xlink="http://www.w3.org/1999/xlink">
 <defs>
  <symbol id="w" overflow="visible">
   <path d="m4.7656-0.28125c-0.25 0.125-0.51172 0.21875-0.78125 0.28125-0.26172 0.0625-0.53906 0.09375-0.82812 0.09375-0.85547 0-1.5391-0.23828-2.0469-0.71875-0.5-0.47656-0.75-1.1328-0.75-1.9688 0-0.82031 0.25-1.4727 0.75-1.9531 0.50781-0.48828 1.1914-0.73438 2.0469-0.73438 0.28906 0 0.56641 0.039062 0.82812 0.10938 0.26953 0.0625 0.53125 0.15625 0.78125 0.28125v1.0781c-0.25-0.17578-0.49609-0.30078-0.73438-0.375-0.24219-0.082031-0.49609-0.125-0.76562-0.125-0.46875 0-0.84375 0.15625-1.125 0.46875-0.27344 0.30469-0.40625 0.71875-0.40625 1.25 0 0.54297 0.13281 0.96484 0.40625 1.2656 0.28125 0.30469 0.65625 0.45312 1.125 0.45312 0.26953 0 0.52344-0.035156 0.76562-0.10938 0.23828-0.082031 0.48438-0.20703 0.73438-0.375z"/>
  </symbol>
  <symbol id="d" overflow="visible">
   <path d="m3.4844-2.8281c-0.10547-0.050781-0.21484-0.085937-0.32812-0.10938-0.10547-0.03125-0.21094-0.046875-0.3125-0.046875-0.32422 0-0.57422 0.10547-0.75 0.3125-0.16797 0.21094-0.25 0.5-0.25 0.875v1.7969h-1.25v-3.8906h1.25v0.64062c0.15625-0.25 0.33594-0.42969 0.54688-0.54688 0.20703-0.125 0.45703-0.1875 0.75-0.1875 0.039063 0 0.082031 0.007813 0.125 0.015625 0.050781 0 0.125 0.007812 0.21875 0.015625z"/>
  </symbol>
  <symbol id="a" overflow="visible">
   <path d="m4.4844-1.9531v0.35938h-2.9062c0.03125 0.29297 0.13281 0.51172 0.3125 0.65625 0.17578 0.14844 0.42578 0.21875 0.75 0.21875 0.25781 0 0.52344-0.035156 0.79688-0.10938 0.28125-0.082031 0.56641-0.20312 0.85938-0.35938v0.95312c-0.29297 0.11719-0.58984 0.19922-0.89062 0.25-0.29297 0.050781-0.58594 0.078125-0.875 0.078125-0.71094 0-1.2578-0.17578-1.6406-0.53125-0.38672-0.35156-0.57812-0.85156-0.57812-1.5 0-0.63281 0.1875-1.1328 0.5625-1.5 0.38281-0.36328 0.91406-0.54688 1.5938-0.54688 0.60156 0 1.0859 0.1875 1.4531 0.5625 0.375 0.36719 0.5625 0.85547 0.5625 1.4688zm-1.2812-0.42188c0-0.22656-0.074219-0.41406-0.21875-0.5625-0.13672-0.14453-0.3125-0.21875-0.53125-0.21875-0.24219 0-0.4375 0.070312-0.59375 0.20312-0.14844 0.13672-0.23438 0.32812-0.26562 0.57812z"/>
  </symbol>
  <symbol id="c" overflow="visible">
   <path d="m2.3438-1.75c-0.26172 0-0.46094 0.046875-0.59375 0.14062-0.125 0.085937-0.1875 0.21094-0.1875 0.375 0 0.15625 0.050781 0.28125 0.15625 0.375 0.10156 0.09375 0.25 0.14062 0.4375 0.14062 0.22656 0 0.42188-0.082031 0.57812-0.25 0.16406-0.17578 0.25-0.39062 0.25-0.64062v-0.14062zm1.8906-0.46875v2.2188h-1.25v-0.57812c-0.16797 0.24219-0.35547 0.41406-0.5625 0.51562-0.21094 0.10156-0.46484 0.15625-0.76562 0.15625-0.39844 0-0.71875-0.11328-0.96875-0.34375-0.25-0.23828-0.375-0.54688-0.375-0.92188 0-0.44531 0.15625-0.77344 0.46875-0.98438 0.3125-0.21875 0.80078-0.32812 1.4688-0.32812h0.73438v-0.10938c0-0.1875-0.078125-0.32812-0.23438-0.42188s-0.39844-0.14062-0.71875-0.14062c-0.27344 0-0.52344 0.027344-0.75 0.078125-0.23047 0.054687-0.44531 0.13281-0.64062 0.23438v-0.9375c0.26953-0.0625 0.53516-0.10938 0.79688-0.14062 0.26953-0.039063 0.53906-0.0625 0.8125-0.0625 0.70703 0 1.2109 0.14062 1.5156 0.42188 0.3125 0.27344 0.46875 0.71875 0.46875 1.3438z"/>
  </symbol>
  <symbol id="b" overflow="visible">
   <path d="m1.9531-4.9844v1.0938h1.2812v0.89062h-1.2812v1.6562c0 0.17969 0.035156 0.29688 0.10938 0.35938 0.070312 0.0625 0.21094 0.09375 0.42188 0.09375h0.64062v0.89062h-1.0625c-0.49219 0-0.83984-0.097656-1.0469-0.29688-0.19922-0.20703-0.29688-0.55469-0.29688-1.0469v-1.6562h-0.625v-0.89062h0.625v-1.0938z"/>
  </symbol>
  <symbol id="k" overflow="visible">
   <path d="m3.25-3.3125v-2.0938h1.2344v5.4062h-1.2344v-0.5625c-0.17969 0.23047-0.37109 0.39844-0.57812 0.5-0.19922 0.10156-0.43359 0.15625-0.70312 0.15625-0.48047 0-0.875-0.1875-1.1875-0.5625-0.3125-0.38281-0.46875-0.875-0.46875-1.4688 0-0.60156 0.15625-1.0938 0.46875-1.4688 0.3125-0.38281 0.70703-0.57812 1.1875-0.57812 0.25781 0 0.49219 0.058594 0.70312 0.17188 0.20703 0.10547 0.39844 0.27344 0.57812 0.5zm-0.82812 2.5156c0.26953 0 0.47266-0.097656 0.60938-0.29688 0.14453-0.19531 0.21875-0.47656 0.21875-0.84375 0-0.375-0.074219-0.65625-0.21875-0.84375-0.13672-0.19531-0.33984-0.29688-0.60938-0.29688-0.26172 0-0.46484 0.10156-0.60938 0.29688-0.13672 0.1875-0.20312 0.46875-0.20312 0.84375 0 0.36719 0.066406 0.64844 0.20312 0.84375 0.14453 0.19922 0.34766 0.29688 0.60938 0.29688z"/>
  </symbol>
  <symbol id="j" overflow="visible">
   <path d="m2.6719-0.79688c0.25781 0 0.45703-0.097656 0.59375-0.29688 0.14453-0.19531 0.21875-0.47656 0.21875-0.84375 0-0.375-0.074219-0.65625-0.21875-0.84375-0.13672-0.19531-0.33594-0.29688-0.59375-0.29688-0.27344 0-0.48047 0.10156-0.625 0.29688-0.13672 0.1875-0.20312 0.46875-0.20312 0.84375 0 0.36719 0.066406 0.64844 0.20312 0.84375 0.14453 0.19922 0.35156 0.29688 0.625 0.29688zm-0.82812-2.5156c0.16406-0.22656 0.35156-0.39453 0.5625-0.5 0.20703-0.11328 0.44531-0.17188 0.71875-0.17188 0.47656 0 0.86719 0.19531 1.1719 0.57812 0.3125 0.375 0.46875 0.86719 0.46875 1.4688 0 0.59375-0.15625 1.0859-0.46875 1.4688-0.30469 0.375-0.69531 0.5625-1.1719 0.5625-0.27344 0-0.51172-0.054688-0.71875-0.15625-0.21094-0.10156-0.39844-0.26953-0.5625-0.5v0.5625h-1.25v-5.4062h1.25z"/>
  </symbol>
  <symbol id="g" overflow="visible">
   <path d="m0.09375-3.8906h1.2344l1.0469 2.6406 0.89062-2.6406h1.2344l-1.625 4.2656c-0.16797 0.42578-0.35938 0.72266-0.57812 0.89062-0.21875 0.17578-0.50781 0.26562-0.85938 0.26562h-0.71875v-0.8125h0.375c0.21875 0 0.375-0.039062 0.46875-0.10938 0.09375-0.0625 0.16406-0.18359 0.21875-0.35938l0.03125-0.09375z"/>
  </symbol>
  <symbol id="f" overflow="visible">
   <path d="m3.7969-0.9375h-2.0938l-0.32812 0.9375h-1.3438l1.9219-5.1875h1.5938l1.9219 5.1875h-1.3438zm-1.75-0.96875h1.4219l-0.71875-2.0625z"/>
  </symbol>
  <symbol id="v" overflow="visible">
   <path d="m0.59375-3.8906h1.25v3.8906h-1.25zm0-1.5156h1.25v1.0156h-1.25z"/>
  </symbol>
  <symbol id="i" overflow="visible">
   <path d="m4.5-2.375v2.375h-1.25v-1.8125c0-0.33203-0.007812-0.5625-0.015625-0.6875-0.011719-0.13281-0.039063-0.22656-0.078125-0.28125-0.054688-0.082031-0.12109-0.14453-0.20312-0.1875-0.085937-0.050781-0.17969-0.078125-0.28125-0.078125-0.26172 0-0.46484 0.10547-0.60938 0.3125-0.14844 0.19922-0.21875 0.47656-0.21875 0.82812v1.9062h-1.25v-3.8906h1.25v0.57812c0.1875-0.22656 0.38281-0.39453 0.59375-0.5 0.20703-0.11328 0.44141-0.17188 0.70312-0.17188 0.44531 0 0.78516 0.14062 1.0156 0.42188 0.22656 0.27344 0.34375 0.66797 0.34375 1.1875z"/>
  </symbol>
  <symbol id="u" overflow="visible">
   <path d="m3.6406-3.7656v0.9375c-0.27344-0.10156-0.53125-0.17969-0.78125-0.23438-0.24219-0.0625-0.47656-0.09375-0.70312-0.09375-0.23047 0-0.40234 0.03125-0.51562 0.09375-0.11719 0.054688-0.17188 0.14062-0.17188 0.26562 0 0.10547 0.039062 0.18359 0.125 0.23438 0.082031 0.054688 0.23828 0.089844 0.46875 0.10938l0.21875 0.03125c0.63281 0.085937 1.0625 0.21875 1.2812 0.40625s0.32812 0.48047 0.32812 0.875c0 0.40625-0.15234 0.71484-0.45312 0.92188-0.30469 0.21094-0.76172 0.3125-1.375 0.3125-0.25 0-0.51562-0.023438-0.79688-0.0625-0.27344-0.03125-0.55469-0.085938-0.84375-0.17188v-0.95312c0.25 0.125 0.50391 0.21875 0.76562 0.28125 0.25781 0.0625 0.52344 0.09375 0.79688 0.09375 0.23828 0 0.42188-0.03125 0.54688-0.09375 0.125-0.070312 0.1875-0.17578 0.1875-0.3125 0-0.11328-0.042969-0.19531-0.125-0.25-0.085938-0.050781-0.25781-0.09375-0.51562-0.125l-0.21875-0.03125c-0.55469-0.0625-0.9375-0.1875-1.1562-0.375s-0.32812-0.47266-0.32812-0.85938c0-0.41406 0.14062-0.72266 0.42188-0.92188 0.28125-0.19531 0.71094-0.29688 1.2969-0.29688 0.22656 0 0.46875 0.023437 0.71875 0.0625 0.25 0.03125 0.52344 0.085937 0.82812 0.15625z"/>
  </symbol>
  <symbol id="t" overflow="visible">
   <path d="m0.59375-5.4062h1.25v5.4062h-1.25z"/>
  </symbol>
  <symbol id="s" overflow="visible">
   <path d="m3.25-0.65625c-0.17969 0.23047-0.37109 0.39844-0.57812 0.5-0.19922 0.10547-0.43359 0.15625-0.70312 0.15625-0.48047 0-0.875-0.1875-1.1875-0.5625s-0.46875-0.84766-0.46875-1.4219c0-0.58203 0.15625-1.0547 0.46875-1.4219 0.3125-0.375 0.70703-0.5625 1.1875-0.5625 0.26953 0 0.50391 0.054688 0.70312 0.15625 0.20703 0.10547 0.39844 0.27344 0.57812 0.5v-0.57812h1.2344v3.5c0 0.625-0.19922 1.0977-0.59375 1.4219-0.38672 0.33203-0.95312 0.5-1.7031 0.5-0.25 0-0.49219-0.023438-0.71875-0.0625-0.21875-0.03125-0.44531-0.085938-0.67188-0.15625v-0.96875c0.21875 0.125 0.42969 0.21875 0.64062 0.28125 0.20703 0.0625 0.41406 0.09375 0.625 0.09375 0.40625 0 0.70312-0.09375 0.89062-0.28125 0.19531-0.17969 0.29688-0.45312 0.29688-0.82812zm-0.82812-2.4219c-0.26172 0-0.46484 0.09375-0.60938 0.28125-0.13672 0.1875-0.20312 0.46094-0.20312 0.8125 0 0.35547 0.066406 0.625 0.20312 0.8125 0.14453 0.17969 0.34766 0.26562 0.60938 0.26562 0.25781 0 0.46094-0.09375 0.60938-0.28125 0.14453-0.1875 0.21875-0.45312 0.21875-0.79688 0-0.35156-0.074219-0.625-0.21875-0.8125-0.14844-0.1875-0.35156-0.28125-0.60938-0.28125z"/>
  </symbol>
  <symbol id="h" overflow="visible">
   <path d="m4.5-2.375v2.375h-1.25v-1.8125c0-0.33203-0.007812-0.5625-0.015625-0.6875-0.011719-0.13281-0.039063-0.22656-0.078125-0.28125-0.054688-0.082031-0.12109-0.14453-0.20312-0.1875-0.085937-0.050781-0.17969-0.078125-0.28125-0.078125-0.26172 0-0.46484 0.10547-0.60938 0.3125-0.14844 0.19922-0.21875 0.47656-0.21875 0.82812v1.9062h-1.25v-5.4062h1.25v2.0938c0.1875-0.22656 0.38281-0.39453 0.59375-0.5 0.20703-0.11328 0.44141-0.17188 0.70312-0.17188 0.44531 0 0.78516 0.14062 1.0156 0.42188 0.22656 0.27344 0.34375 0.66797 0.34375 1.1875z"/>
  </symbol>
  <symbol id="r" overflow="visible">
   <path d="m3.1562-5.4062v0.82812h-0.6875c-0.17969 0-0.30469 0.03125-0.375 0.09375-0.0625 0.0625-0.09375 0.17188-0.09375 0.32812v0.26562h1.0625v0.89062h-1.0625v3h-1.25v-3h-0.60938v-0.89062h0.60938v-0.26562c0-0.42578 0.11719-0.73828 0.35938-0.9375 0.23828-0.20703 0.60156-0.3125 1.0938-0.3125z"/>
  </symbol>
  <symbol id="e" overflow="visible">
   <path d="m2.4531-3.0938c-0.28125 0-0.49609 0.10156-0.64062 0.29688-0.14844 0.19922-0.21875 0.48438-0.21875 0.85938s0.070312 0.66406 0.21875 0.85938c0.14453 0.19922 0.35938 0.29688 0.64062 0.29688 0.26953 0 0.47266-0.097656 0.60938-0.29688 0.14453-0.19531 0.21875-0.48438 0.21875-0.85938s-0.074219-0.66016-0.21875-0.85938c-0.13672-0.19531-0.33984-0.29688-0.60938-0.29688zm0-0.89062c0.66406 0 1.1875 0.18359 1.5625 0.54688 0.375 0.35547 0.5625 0.85547 0.5625 1.5 0 0.63672-0.1875 1.1367-0.5625 1.5-0.375 0.35547-0.89844 0.53125-1.5625 0.53125-0.67969 0-1.2031-0.17578-1.5781-0.53125-0.375-0.36328-0.5625-0.86328-0.5625-1.5 0-0.64453 0.1875-1.1445 0.5625-1.5 0.375-0.36328 0.89844-0.54688 1.5781-0.54688z"/>
  </symbol>
  <symbol id="q" overflow="visible">
   <path d="m4.2031-3.25c0.15625-0.23828 0.33594-0.42188 0.54688-0.54688 0.21875-0.125 0.45703-0.1875 0.71875-0.1875 0.44531 0 0.78516 0.14062 1.0156 0.42188 0.23828 0.27344 0.35938 0.66797 0.35938 1.1875v2.375h-1.25v-2.0312-0.09375c0.007812-0.03125 0.015625-0.078125 0.015625-0.14062 0-0.26953-0.042969-0.46875-0.125-0.59375-0.085937-0.125-0.21484-0.1875-0.39062-0.1875-0.24219 0-0.42969 0.10156-0.5625 0.29688-0.125 0.1875-0.1875 0.46875-0.1875 0.84375v1.9062h-1.25v-2.0312c0-0.42578-0.039062-0.70312-0.10938-0.82812-0.074219-0.125-0.20312-0.1875-0.39062-0.1875-0.24219 0-0.42969 0.10156-0.5625 0.29688-0.125 0.19922-0.1875 0.48047-0.1875 0.84375v1.9062h-1.25v-3.8906h1.25v0.57812c0.14453-0.21875 0.31641-0.38281 0.51562-0.5 0.19531-0.11328 0.41406-0.17188 0.65625-0.17188 0.26953 0 0.50781 0.070313 0.71875 0.20312 0.20703 0.125 0.36328 0.30469 0.46875 0.53125z"/>
  </symbol>
  <symbol id="p" overflow="visible">
   <path d="m0.65625-5.1875h1.4844l1.8906 3.5625v-3.5625h1.2656v5.1875h-1.5l-1.875-3.5625v3.5625h-1.2656z"/>
  </symbol>
  <symbol id="o" overflow="visible">
   <path d="m0.5625-1.5156v-2.375h1.25v0.39062c0 0.21094-0.007812 0.47656-0.015625 0.79688v0.64062c0 0.3125 0.003906 0.53906 0.015625 0.67188 0.019531 0.13672 0.050781 0.23438 0.09375 0.29688 0.050781 0.085938 0.11719 0.14844 0.20312 0.1875 0.082031 0.042969 0.17578 0.0625 0.28125 0.0625 0.25781 0 0.46094-0.097656 0.60938-0.29688 0.14453-0.19531 0.21875-0.47266 0.21875-0.82812v-1.9219h1.25v3.8906h-1.25v-0.5625c-0.1875 0.23047-0.38672 0.39844-0.59375 0.5-0.21094 0.10156-0.4375 0.15625-0.6875 0.15625-0.44922 0-0.79297-0.13281-1.0312-0.40625-0.23047-0.26953-0.34375-0.67188-0.34375-1.2031z"/>
  </symbol>
  <symbol id="n" overflow="visible">
   <path d="m0.65625-5.1875h2.2188c0.65625 0 1.1602 0.15234 1.5156 0.45312 0.35156 0.29297 0.53125 0.70312 0.53125 1.2344 0 0.55469-0.17969 0.97656-0.53125 1.2656-0.35547 0.29297-0.85938 0.4375-1.5156 0.4375h-0.89062v1.7969h-1.3281zm1.3281 0.96875v1.4531h0.75c0.25781 0 0.45703-0.0625 0.59375-0.1875 0.14453-0.125 0.21875-0.30469 0.21875-0.54688 0-0.22656-0.074219-0.40625-0.21875-0.53125-0.13672-0.125-0.33594-0.1875-0.59375-0.1875z"/>
  </symbol>
  <symbol id="m" overflow="visible">
   <path d="m0.59375-3.8906h1.25v3.8281c0 0.51953-0.125 0.91406-0.375 1.1875-0.25 0.26953-0.61719 0.40625-1.0938 0.40625h-0.60938v-0.8125h0.21875c0.22656 0 0.38281-0.054688 0.46875-0.15625 0.09375-0.10547 0.14062-0.3125 0.14062-0.625zm0-1.5156h1.25v1.0156h-1.25z"/>
  </symbol>
  <symbol id="l" overflow="visible">
   <path d="m3.7344-3.7656v1.0156c-0.16797-0.11328-0.33984-0.19531-0.51562-0.25-0.16797-0.0625-0.33984-0.09375-0.51562-0.09375-0.34375 0-0.61719 0.10547-0.8125 0.3125-0.19922 0.19922-0.29688 0.48047-0.29688 0.84375 0 0.36719 0.097656 0.65234 0.29688 0.85938 0.19531 0.19922 0.46875 0.29688 0.8125 0.29688 0.19531 0 0.37891-0.03125 0.54688-0.09375 0.17578-0.0625 0.33594-0.14453 0.48438-0.25v1.0156c-0.1875 0.074219-0.38672 0.125-0.59375 0.15625-0.19922 0.03125-0.39844 0.046875-0.59375 0.046875-0.69922 0-1.2461-0.17578-1.6406-0.53125-0.39844-0.36328-0.59375-0.86328-0.59375-1.5 0-0.64453 0.19531-1.1445 0.59375-1.5 0.39453-0.36328 0.94141-0.54688 1.6406-0.54688 0.19531 0 0.39453 0.023437 0.59375 0.0625 0.19531 0.03125 0.39453 0.085937 0.59375 0.15625z"/>
  </symbol>
 </defs>
 <g>
  <path d="m192.87 0c73.914 0 136.45 48.762 157.13 115.9 20.688-67.137 83.219-115.9 157.13-115.9 90.805 0 152.8 74.367 164.42 164.41 17.859 138.46-220.49 339.68-321.55 395.59-101.07-55.91-339.41-257.13-321.55-395.59 11.621-90.039 73.613-164.41 164.42-164.41z" fill-rule="evenodd"/>
  <use x="27.496094" y="581.3125" xlink:href="#w"/>
  <use x="32.707031" y="581.3125" xlink:href="#d"/>
  <use x="36.210938" y="581.3125" xlink:href="#a"/>
  <use x="41.03125" y="581.3125" xlink:href="#c"/>
  <use x="45.824219" y="581.3125" xlink:href="#b"/>
  <use x="49.222656" y="581.3125" xlink:href="#a"/>
  <use x="54.039062" y="581.3125" xlink:href="#k"/>
  <use x="61.597656" y="581.3125" xlink:href="#j"/>
  <use x="66.683594" y="581.3125" xlink:href="#g"/>
  <use x="73.789062" y="581.3125" xlink:href="#f"/>
  <use x="79.285156" y="581.3125" xlink:href="#v"/>
  <use x="81.71875" y="581.3125" xlink:href="#i"/>
  <use x="86.777344" y="581.3125" xlink:href="#u"/>
  <use x="91.007812" y="581.3125" xlink:href="#t"/>
  <use x="93.441406" y="581.3125" xlink:href="#a"/>
  <use x="98.261719" y="581.3125" xlink:href="#g"/>
  <use x="105.363281" y="581.3125" xlink:href="#f"/>
  <use x="110.863281" y="581.3125" xlink:href="#s"/>
  <use x="115.949219" y="581.3125" xlink:href="#c"/>
  <use x="120.742188" y="581.3125" xlink:href="#b"/>
  <use x="124.136719" y="581.3125" xlink:href="#h"/>
  <use x="129.195312" y="581.3125" xlink:href="#c"/>
  <use x="27.496094" y="588.417969" xlink:href="#r"/>
  <use x="30.585938" y="588.417969" xlink:href="#d"/>
  <use x="34.089844" y="588.417969" xlink:href="#e"/>
  <use x="38.96875" y="588.417969" xlink:href="#q"/>
  <use x="48.847656" y="588.417969" xlink:href="#b"/>
  <use x="52.242188" y="588.417969" xlink:href="#h"/>
  <use x="57.300781" y="588.417969" xlink:href="#a"/>
  <use x="64.589844" y="588.417969" xlink:href="#p"/>
  <use x="70.535156" y="588.417969" xlink:href="#e"/>
  <use x="75.417969" y="588.417969" xlink:href="#o"/>
  <use x="80.476562" y="588.417969" xlink:href="#i"/>
  <use x="88.007812" y="588.417969" xlink:href="#n"/>
  <use x="93.214844" y="588.417969" xlink:href="#d"/>
  <use x="96.714844" y="588.417969" xlink:href="#e"/>
  <use x="101.597656" y="588.417969" xlink:href="#m"/>
  <use x="104.03125" y="588.417969" xlink:href="#a"/>
  <use x="108.851562" y="588.417969" xlink:href="#l"/>
  <use x="113.0625" y="588.417969" xlink:href="#b"/>
 </g>
</svg>
